# xmcd
#
# Track frame offsets:
# 150
# 12770
# 24139
# 39294
# 55129
# 69371
# 84662
# 96178
# 120006
# 132473
# 146444
# 159494
# 173308
# 188412
# 201842
#
# Disc length: 2803 seconds
#
# Revision: 0
# Processed by: cddbd v1.4PL0 Copyright (c) Steve Scherf et al.
# Submitted via: Audion 3.0.2 (http://www.panic.com/audion/)
#
DISCID=aa0af10f
DTITLE=Tony Williamson - Still Light Of The Evening
DYEAR=1900
DGENRE=
TTITLE0=Boatman
TTITLE1=Mountain Girl
TTITLE2=Still Light Of The Evening
TTITLE3=City On The Hill
TTITLE4=White Angels In The Clouds
TTITLE5=Back Up and Push
TTITLE6=I've Always Been A rambler
TTITLE7=Hard Luck Shuffel
TTITLE8=Out In The Cold World
TTITLE9=I Could Melt A Mountain Top
TTITLE10=Temperence Reel
TTITLE11=Maple On The Hill
TTITLE12=Rovin' Gambler
TTITLE13=Avgeline The Baker
TTITLE14=Jacob's Vision
EXTD=
EXTT0=
EXTT1=
EXTT2=
EXTT3=
EXTT4=
EXTT5=
EXTT6=
EXTT7=
EXTT8=
EXTT9=
EXTT10=
EXTT11=
EXTT12=
EXTT13=
EXTT14=
PLAYORDER=
